<svg width="245" height="245" xmlns="http://www.w3.org/2000/svg" xmlns:xlink="http://www.w3.org/1999/xlink" preserveAspectRatio="xMidYMid meet">
 <defs>
  <path d="m53.73,0.1l0.32,0.04l0.3,0.03l0.29,0.04l0.28,0.04l0.27,0.05l0.25,0.05l0.25,0.06l0.23,0.06l0.22,0.06l0.21,0.07l0.2,0.08l0.18,0.08l0.18,0.09l0.17,0.09l0.15,0.1l0.15,0.11l0.13,0.11l0.13,0.12l0.11,0.13l0.11,0.13l0.09,0.14l0.09,0.15l0.07,0.16l0.07,0.16l0.06,0.17l0.05,0.18l0.04,0.19l0.03,0.2l0.03,0.2l0.01,0.21l0.01,0.23l0,0.23l-0.01,0.24l-0.01,0.25l-0.02,0.26l-1.31,-0.02l-1.33,-0.02l-1.35,-0.02l-1.35,-0.03l-1.37,-0.02l-1.38,-0.02l-1.39,-0.02l-1.39,-0.02l-1.4,-0.01l-1.39,-0.01l-1.4,0l-1.39,-0.01l-1.39,0.01l-1.39,0.01l-1.37,0.02l-1.37,0.03l-1.35,0.03l-1.33,0.05l-1.32,0.05l-1.3,0.06l-1.28,0.07l-1.26,0.09l-1.23,0.09l-1.21,0.11l-1.17,0.13l-1.15,0.13l-1.11,0.15l-1.08,0.17l-1.04,0.18l-1,0.19l-0.96,0.22l-0.91,0.23l-0.87,0.25l-0.83,0.27l-0.77,0.28l-0.72,0.31l-0.67,0.33l-0.62,0.35l-0.55,0.37l-0.5,0.39l-0.44,0.64l-0.36,0.63l-0.29,0.61l-0.2,0.6l-0.14,0.58l-0.07,0.57l0.01,0.56l0.07,0.55l0.13,0.53l0.2,0.53l0.25,0.51l0.32,0.51l0.37,0.49l0.43,0.49l0.48,0.47l0.52,0.47l0.58,0.46l0.62,0.46l0.67,0.44l0.71,0.44l0.74,0.44l0.79,0.43l0.82,0.42l0.85,0.43l0.88,0.41l0.92,0.42l0.94,0.41l0.96,0.41l0.99,0.41l1.01,0.4l1.03,0.41l1.04,0.41l1.06,0.4l1.07,0.41l1.08,0.41l1.09,0.41l1.1,0.41l1.1,0.41l1.1,0.42l1.1,0.42l-3.19,2.05l0,4.24l-2.06,0l0,3.42l2.06,0l0,8.15l0,0.13l0,0.12l0,0.13l0.01,0.12l0,0.12l0,0.12l0,0.12l0,0.11l0,0.12l0,0.11l0,0.1l0.01,0.11l0,0.1l0,0.1l0,0.1l0.01,0.1l0,0.09l0,0.1l0.01,0.09l0,0.09l0,0.08l0.01,0.08l0,0.09l0,0.08l0.01,0.07l0,0.08l0.01,0.07l0,0.07l0.01,0.07l0,0.07l0.01,0.06l0,0.06l0.01,0.06l0.01,0.06l0,0.05l0.01,0.06l0.01,0.05l0,0.05l0.01,0.04l0.01,0.05l0,0.06l0.01,0.06l0.01,0.06l0.01,0.06l0.01,0.05l0.01,0.06l0.02,0.06l0.01,0.05l0.01,0.06l0.01,0.05l0.01,0.06l0.02,0.05l0.01,0.05l0.01,0.06l0.02,0.05l0.01,0.05l0.01,0.05l0.02,0.05l0.01,0.05l0.02,0.05l0.02,0.04l0.01,0.05l0.02,0.05l0.02,0.04l0.01,0.05l0.02,0.04l0.02,0.05l0.02,0.04l0.01,0.05l0.02,0.04l0.02,0.04l0.02,0.04l0.02,0.04l0.02,0.04l0.02,0.04l0.02,0.04l0.03,0.04l0.02,0.03l0.02,0.04l0.02,0.04l0.02,0.03l0.03,0.04l0.02,0.03l0.03,0.03l0.02,0.04l0.03,0.03l0.03,0.04l0.02,0.03l0.03,0.03l0.03,0.03l0.03,0.04l0.03,0.03l0.03,0.03l0.03,0.03l0.03,0.03l0.04,0.03l0.03,0.03l0.03,0.03l0.04,0.03l0.03,0.03l0.04,0.03l0.03,0.03l0.04,0.03l0.04,0.02l0.04,0.03l0.04,0.03l0.04,0.03l0.04,0.02l0.04,0.03l0.04,0.02l0.04,0.03l0.04,0.03l0.05,0.02l0.04,0.02l0.05,0.03l0.04,0.02l0.05,0.03l0.05,0.02l0.04,0.02l0.05,0.03l0.05,0.02l0.05,0.02l0.05,0.02l0.05,0.02l0.05,0.02l0.05,0.02l0.05,0.02l0.05,0.02l0.05,0.01l0.05,0.02l0.05,0.02l0.05,0.01l0.05,0.02l0.06,0.01l0.05,0.02l0.05,0.01l0.06,0.02l0.05,0.01l0.05,0.01l0.06,0.01l0.05,0.01l0.06,0.01l0.05,0.01l0.06,0.01l0.05,0.01l0.06,0.01l0.05,0.01l0.06,0l0.06,0.01l0.05,0.01l0.06,0l0.06,0.01l0.06,0l0.06,0l0.05,0.01l0.06,0l0.06,0l0.06,0l0.06,0l0.06,0l0.1,0l0.1,0l0.09,0l0.1,0l0.1,-0.01l0.09,0l0.1,-0.01l0.09,-0.01l0.09,0l0.1,-0.01l0.09,-0.01l0.09,-0.01l0.09,-0.01l0.09,-0.02l0.1,-0.01l0.09,-0.01l0.09,-0.02l0.08,-0.02l0.09,-0.01l0.09,-0.02l0.09,-0.02l0.09,-0.02l0.08,-0.02l0.09,-0.02l0.08,-0.03l0.09,-0.02l0.08,-0.02l0.09,-0.03l0.08,-0.03l0.08,-0.02l0.09,-0.03l0.08,-0.03l0.08,-0.03l0.08,-0.03l0.08,-0.03l0.08,-0.04l0.08,-0.03l0.08,-0.03l0.08,-0.04l0.07,-0.04l-0.37,-3.3l-0.06,0.02l-0.06,0.02l-0.05,0.03l-0.06,0.02l-0.06,0.02l-0.05,0.02l-0.05,0.02l-0.06,0.02l-0.05,0.02l-0.05,0.02l-0.05,0.01l-0.05,0.02l-0.05,0.02l-0.05,0.01l-0.05,0.02l-0.04,0.01l-0.05,0.02l-0.05,0.01l-0.04,0.01l-0.05,0.01l-0.04,0.02l-0.04,0.01l-0.05,0.01l-0.04,0.01l-0.04,0.01l-0.04,0l-0.04,0.01l-0.04,0.01l-0.04,0.01l-0.04,0l-0.03,0.01l-0.04,0l-0.03,0.01l-0.04,0l-0.03,0l-0.04,0.01l-0.03,0l-0.03,0l-0.03,0l-0.04,0l-0.02,0l-0.02,0l-0.02,0l-0.03,0l-0.02,0l-0.02,-0.01l-0.03,0l-0.02,-0.01l-0.03,0l-0.02,0l-0.02,-0.01l-0.03,-0.01l-0.02,0l-0.03,-0.01l-0.02,-0.01l-0.03,0l-0.02,-0.01l-0.03,-0.01l-0.02,-0.01l-0.03,-0.01l-0.02,-0.01l-0.02,-0.01l-0.03,-0.01l-0.02,-0.01l-0.02,-0.01l-0.03,-0.01l-0.02,-0.01l-0.02,-0.01l-0.02,-0.02l-0.02,-0.01l-0.03,-0.01l-0.02,-0.02l-0.01,-0.01l-0.02,-0.01l-0.02,-0.02l-0.02,-0.01l-0.02,-0.02l-0.01,-0.01l-0.02,-0.02l-0.01,-0.01l-0.03,-0.04l-0.03,-0.03l-0.03,-0.05l-0.02,-0.05l-0.02,-0.05l-0.02,-0.06l-0.02,-0.06l-0.02,-0.06l-0.02,-0.07l-0.02,-0.08l-0.01,-0.07l-0.01,-0.08l-0.02,-0.09l-0.01,-0.08l-0.01,-0.09l0,-0.09l-0.01,-0.1l-0.01,-0.1l-0.01,-0.09l0,-0.11l-0.01,-0.1l0,-0.11l0,-0.1l-0.01,-0.11l0,-0.11l0,-0.12l0,-0.11l0,-0.11l0,-0.12l0,-0.11l0,-0.12l0,-0.12l0,-0.11l0,-0.12l0,-0.23l0,-0.12l0,-0.12l0,-0.11l0,-0.11l0,-7.53l3.05,0l0,-3.42l-3.05,0l0,-5.78l0.78,0.3l0.78,0.31l0.77,0.32l0.77,0.31l0.77,0.32l0.75,0.32l0.76,0.33l0.74,0.32l0.73,0.34l0.73,0.33l0.71,0.34l0.71,0.35l0.69,0.35l0.68,0.35l0.67,0.36l0.66,0.37l0.64,0.37l0.62,0.37l0.61,0.38l0.6,0.39l0.57,0.39l0.56,0.4l0.54,0.41l0.51,0.41l0.5,0.42l0.48,0.42l0.45,0.44l0.44,0.44l0.41,0.44l0.38,0.46l0.36,0.46l0.33,0.47l0.31,0.48l0.28,0.49l0.25,0.49l0.23,0.51l0.19,0.51l0.16,0.52l0.14,0.53l0.1,0.54l0,0.02l0.01,0.02l0,0.02l0,0.01l0,0.02l0.01,0.02l0,0.02l0.01,0.02l0,0.03l0,0.03l0.01,0.03l0,0.03l0.01,0.03l0,0.03l0.01,0.04l0,0.04l0.01,0.04l0,0.04l0.01,0.04l0,0.04l0.01,0.05l0,0.04l0.01,0.05l0,0.05l0,0.05l0.01,0.06l0,0.05l0,0.06l0.01,0.05l0,0.06l0,0.06l0,0.06l0,0.06l0,0.06l0,0.07l0,0.06l0,0.07l0,0.07l-0.01,0.06l0,0.07l0,0.06l0,0.06l-0.01,0.06l0,0.06l0,0.05l-0.01,0.06l0,0.05l0,0.05l-0.01,0.05l0,0.05l-0.01,0.04l0,0.05l-0.01,0.04l0,0.04l0,0.04l-0.01,0.04l0,0.03l-0.01,0.04l0,0.03l0,0.03l-0.01,0.03l0,0.02l-0.01,0.03l0,0.02l0,0.02l-0.01,0.02l0,0.02l0,0.02l-0.01,0.02l0,0.02l0,0.02l-0.07,0.54l-0.1,0.52l-0.11,0.5l-0.13,0.49l-0.14,0.46l-0.16,0.45l-0.18,0.43l-0.2,0.42l-0.21,0.39l-0.23,0.38l-0.24,0.37l-0.25,0.34l-0.27,0.34l-0.28,0.31l-0.3,0.31l-0.3,0.29l-0.32,0.27l-0.33,0.26l-0.34,0.25l-0.36,0.24l-0.36,0.22l-0.37,0.21l-0.38,0.2l-0.39,0.19l-0.39,0.18l-0.41,0.17l-0.41,0.15l-0.42,0.15l-0.42,0.14l-0.43,0.13l-0.44,0.12l-0.44,0.11l-0.44,0.11l-0.45,0.1l-0.45,0.09l-0.46,0.08l-0.45,0.08l-0.46,0.08l-0.46,0.06l-0.46,0.07l-37.28,0l0.1,-7.3l0.14,0.2l0.15,0.19l0.14,0.17l0.15,0.17l0.16,0.15l0.16,0.15l0.16,0.14l0.16,0.13l0.17,0.12l0.17,0.11l0.16,0.11l0.17,0.09l0.17,0.09l0.17,0.09l0.17,0.07l0.17,0.07l0.16,0.06l0.16,0.06l0.16,0.05l0.16,0.05l0.16,0.04l0.15,0.03l0.14,0.04l0.14,0.02l0.14,0.03l0.13,0.02l0.12,0.01l0.12,0.02l0.11,0.01l0.11,0.01l0.09,0l0.09,0.01l0.08,0l0.07,0l0.06,0l0.05,0l0.04,0l0.03,0l0.02,0l0,0l0.22,0l0.22,0l0.21,-0.01l0.2,-0.03l0.2,-0.03l0.2,-0.04l0.18,-0.05l0.19,-0.05l0.18,-0.06l0.17,-0.07l0.16,-0.07l0.17,-0.08l0.15,-0.08l0.15,-0.08l0.15,-0.09l0.14,-0.09l0.13,-0.1l0.13,-0.09l0.13,-0.1l0.11,-0.1l0.12,-0.1l0.1,-0.09l0.1,-0.1l0.1,-0.1l0.09,-0.09l0.08,-0.09l0.08,-0.09l0.08,-0.09l0.06,-0.08l0.06,-0.08l0.06,-0.07l0.05,-0.06l0.04,-0.07l0.04,-0.05l0.03,-0.05l0.03,-0.04l0.02,-0.03l0.02,-0.02l0.01,-0.02l0,0l0.2,-0.29l0.18,-0.29l0.17,-0.31l0.16,-0.31l0.15,-0.31l0.13,-0.33l0.13,-0.32l0.11,-0.33l0.1,-0.34l0.09,-0.34l0.08,-0.34l0.07,-0.34l0.06,-0.33l0.06,-0.34l0.04,-0.34l0.04,-0.33l0.03,-0.33l0.03,-0.33l0.02,-0.32l0.01,-0.31l0.01,-0.31l0,-0.3l0,-0.29l0,-0.28l-0.01,-0.27l-0.01,-0.26l-0.02,-0.25l-0.01,-0.23l-0.02,-0.22l-0.02,-0.21l-0.01,-0.19l-0.02,-0.17l-0.02,-0.16l-0.02,-0.14l-0.01,-0.12l-0.02,-0.1l-0.01,-0.08l-0.01,-0.05l0,-0.04l0,-0.01l-0.09,-0.48l-0.1,-0.45l-0.11,-0.43l-0.12,-0.4l-0.14,-0.38l-0.15,-0.36l-0.16,-0.34l-0.17,-0.32l-0.18,-0.3l-0.19,-0.27l-0.19,-0.26l-0.2,-0.25l-0.21,-0.22l-0.21,-0.21l-0.21,-0.19l-0.22,-0.18l-0.22,-0.16l-0.22,-0.14l-0.21,-0.14l-0.22,-0.12l-0.22,-0.11l-0.21,-0.09l-0.21,-0.09l-0.2,-0.07l-0.2,-0.07l-0.2,-0.06l-0.18,-0.04l-0.18,-0.05l-0.17,-0.03l-0.16,-0.03l-0.14,-0.02l-0.14,-0.02l-0.12,-0.01l-0.11,-0.01l-0.1,0l-0.08,-0.01l-0.06,0l-0.05,0l-0.03,0l-0.01,0l-0.31,0.02l-0.31,0.03l-0.29,0.04l-0.28,0.05l-0.28,0.05l-0.26,0.06l-0.25,0.07l-0.24,0.07l-0.23,0.08l-0.22,0.09l-0.21,0.09l-0.2,0.09l-0.19,0.1l-0.19,0.1l-0.17,0.1l-0.17,0.1l-0.15,0.11l-0.15,0.1l-0.14,0.11l-0.13,0.11l-0.12,0.11l-0.11,0.1l-0.11,0.11l-0.1,0.1l-0.09,0.1l-0.09,0.1l-0.08,0.1l-0.07,0.09l-0.06,0.08l-0.06,0.08l-0.05,0.08l-0.05,0.07l-0.04,0.06l-0.03,0.06l-0.03,0.05l-0.02,0.04l-0.02,0.03l-0.01,0.03l-0.01,0.01l0,0.01l0,-2.58l-3.92,0l0.01,22.83l0,0l-0.02,-0.01l-0.01,-0.01l-0.16,-0.08l-0.17,-0.08l-0.15,-0.08l-0.16,-0.09l-0.15,-0.1l-0.15,-0.1l-0.15,-0.1l-0.14,-0.1l-0.14,-0.11l-0.14,-0.12l-0.13,-0.12l-0.13,-0.12l-0.13,-0.12l-0.12,-0.13l-0.12,-0.13l-0.11,-0.14l-0.12,-0.13l-0.1,-0.14l-0.11,-0.15l-0.1,-0.14l-0.09,-0.15l-0.09,-0.16l-0.09,-0.15l-0.09,-0.16l-0.07,-0.16l-0.08,-0.16l-0.07,-0.17l-0.06,-0.17l-0.06,-0.17l-0.06,-0.17l-0.05,-0.17l-0.04,-0.18l-0.05,-0.18l-0.03,-0.18l-0.03,-0.18l-0.03,-0.18l-0.01,-0.19l-0.02,-0.18l-0.01,-0.19l0,-0.19l0,-44.86l0.01,-0.26l0.01,-0.26l0.03,-0.25l0.03,-0.25l0.05,-0.25l0.06,-0.25l0.06,-0.24l0.08,-0.23l0.08,-0.24l0.09,-0.23l0.11,-0.22l0.11,-0.22l0.11,-0.21l0.13,-0.21l0.13,-0.21l0.15,-0.2l0.15,-0.19l0.15,-0.19l0.17,-0.18l0.17,-0.17l0.17,-0.17l0.19,-0.16l0.19,-0.16l0.19,-0.14l0.2,-0.14l0.21,-0.13l0.21,-0.13l0.22,-0.12l0.23,-0.1l0.22,-0.1l0.24,-0.1l0.23,-0.08l0.24,-0.07l0.25,-0.07l0.25,-0.05l0.25,-0.05l0.25,-0.03l0.26,-0.03l0.26,-0.01l0.27,-0.01l45.55,0l0.38,0.01l0.37,0.02l0.35,0.02l0.34,0.03l0,0l0.33,0.02zm-30.59,34l0,18.18l4.5,0l0,-18.18l0,0l-4.5,0zm-8.03,7.5l0.13,1.87l-0.16,1.93l-0.44,1.49l-0.64,1.08l-0.76,0.71l-0.8,0.4l-0.77,0.13l-0.76,-0.1l-0.84,-0.34l-0.82,-0.66l-0.69,-1.06l-0.47,-1.53l-0.15,-2.08l0.19,-2.16l0.45,-1.56l0.66,-1.05l0.8,-0.63l0.86,-0.31l0.87,-0.07l0.85,0.16l0.81,0.44l0.72,0.76l0.57,1.1l0,0l0.39,1.48zm8.24,-11.37l0.47,0.74l0.7,0.49l0.86,0.19l0.86,-0.19l0.7,-0.49l0.47,-0.74l0.17,-0.9l-0.17,-0.91l-0.47,-0.74l-0.7,-0.49l-0.86,-0.18l-0.86,0.18l-0.7,0.49l-0.47,0.74l-0.17,0.91l0,0l0.17,0.9zm20.19,-14.35l-2.5,-1.55l-1.1,-1.58l0.37,-1.5l1.94,-1.3l3.6,-0.96l5.37,-0.5l7.21,0.07l0,10.52l-6.1,-0.7l-5,-1.11l0,0l-3.79,-1.39z" id="a1NXIgFOX"/>
 </defs>
 <g>
  <title>background</title>
  <rect x="-1" y="-1" width="247" height="247" id="canvas_background" fill="none"/>
 </g>
 <g>
  <title>Layer 1</title>
  <g stroke="null" id="svg_1">
   <g stroke="null" id="svg_2">
    <g stroke="null" id="svg_3">
     <use stroke="null" xlink:href="#a1NXIgFOX" fill="#ba2429" id="svg_4" transform="matrix(4.043255881095419,0,0,4.043255881095419,2.504386606820062,6.887061825297184) " y="-0.219394" x="0.369903"/>
     <g stroke="null" id="svg_5">
      <use stroke="#000000" xlink:href="#a1NXIgFOX" fill-opacity="0" stroke-opacity="0" id="svg_6" transform="matrix(4.043255881095419,0,0,4.043255881095419,2.504386606820062,6.887061825297184) " y="-0.219394" x="0.369903"/>
     </g>
    </g>
   </g>
  </g>
 </g>
</svg>