<?xml version="1.0" encoding="UTF-8"?>
<svg id="Ebene_1" xmlns="http://www.w3.org/2000/svg" viewBox="0 0 42.52 42.52">
    <defs>
        <style>.cls-1{fill:#000000;}.cls-2{fill:none;}</style>
    </defs>
    <rect id="canvas_background" class="cls-2" x="9.78" y="-2.67" width="39.8"
          height="39.8"/>
    <g id="g4185">
        <g id="g4211">
            <path id="path4213" class="cls-1"
                  d="m26.94,21.75c-1.35,0-2.44-1.11-2.44-2.46,0-.14.01-.28.04-.42l-5.84-3.4c-.43.36-.98.57-1.58.57-1.35,0-2.44-1.11-2.44-2.46s1.11-2.44,2.46-2.44,2.44,1.11,2.44,2.46c0,.16-.02.31-.05.46l5.82,3.39c.43-.37.99-.6,1.61-.59,1.35,0,2.44,1.11,2.44,2.46s-1.11,2.44-2.46,2.44m-7.44,3.22c0,1.35-1.11,2.44-2.46,2.44s-2.44-1.11-2.44-2.46,1.11-2.44,2.46-2.44c.61,0,1.16.23,1.59.6l4.28-2.43c.18.53.46,1.01.82,1.42l-4.29,2.44c.02.14.04.29.04.44m14.79-14.87l-11.59-6.7c-.79-.46-1.76-.46-2.55-.01l-11.65,6.59c-.8.45-1.3,1.31-1.31,2.23l-.06,13.51c0,.92.48,1.77,1.28,2.24l19.95,11.64.04-8.2,5.82-3.32c.8-.46,1.3-1.3,1.3-2.22l.06-13.51c0-.92-.49-1.78-1.29-2.24"/>
        </g>
    </g>
</svg>
