<?xml version="1.0" encoding="UTF-8"?>
<svg id="Ebene_1" xmlns="http://www.w3.org/2000/svg" viewBox="0 0 16 16">
    <defs>
        <style>.cls-1{fill:none;}.cls-2{fill:#cccccc;}.cls-3{fill:#f7f7f7;}</style>
    </defs>
    <circle class="cls-2" cx="8" cy="8" r="7.18"/>
    <rect id="canvas_background" class="cls-1" y="6.38" width="16" height="16"/>
    <g id="g4211">
        <path id="path4213" class="cls-3"
              d="m9.85,8.2c-.41,0-.83-.33-.83-.83v-.17l-1.9-1.08c-.17.08-.33.17-.58.17-.41,0-.83-.33-.83-.83s.33-.83.83-.83.83.41.83.83v.17l1.9,1.16c.17-.17.33-.25.58-.25.41,0,.83.33.83.83s-.41.83-.83.83m-2.48,1.08c0,.41-.33.83-.83.83s-.83-.33-.83-.83.41-.83.83-.83c.17,0,.41.08.5.17l1.41-.83c.08.25.17.41.33.5l-1.41.83v.17m4.88-4.97l-3.81-2.24c-.25-.17-.58-.17-.83,0l-3.89,2.24c-.33.17-.5.41-.5.75v4.47c0,.33.17.58.41.75l6.62,3.89v-2.73l1.9-1.08c.25-.17.41-.41.41-.75v-4.47c.08-.33-.08-.66-.33-.83"/>
    </g>
</svg>
