<svg xmlns="http://www.w3.org/2000/svg" viewBox="0 0 199.78 172.57"><title>icon</title><path d="M111,113.51,155.4,37.3l32.94-17.84L111.61,151.7l-.12-.48Q111.25,132.37,111,113.51Z" fill="#c56606"/><path d="M111.61,151.7,100,172.57,60.44,104.34H83.25L100.38,132l11.11,19.19Z" fill="#fe8700"/><path d="M165.65,18.64H130C126.53,12.51,123.15,6.5,119.5,0h80.28L188.63,18.64Z" fill="#fe8701"/><path d="M10.87,18.76,0,.15H79.68L69,18.75H10.87Z" fill="#fe8701"/><path d="M44.65,37.56l7.63,12.59L40.63,70.41,11.49,19.51Z" fill="#c56606"/><path d="M165.65,18.64h23a.79.79,0,0,1-.29.82L155.4,37.3Q160.53,28,165.65,18.64Z" fill="#874306"/><path d="M44.65,37.56l-33.16-18-.62-.75h23Z" fill="#874306"/><path d="M111.49,151.22,100.38,132,111,113.51Q111.26,132.37,111.49,151.22Z" fill="#874306"/></svg>
