<svg width="512" height="512" xmlns="http://www.w3.org/2000/svg">
 <g>
  <title>background</title>
  <rect x="-1" y="-1" width="514" height="514" id="canvas_background" fill="none"/>
 </g>

 <g>
  <title>Layer 1</title>
  <path stroke="null" d="m435.248737,291.65684c0,0 -6.435676,-2.370639 -25.054556,-4.053007c-22.76578,-2.061429 -29.633454,-10.419016 -37.205896,-20.823784l-0.152306,0c-0.942921,-2.473031 -1.952993,-4.914873 -3.064839,-7.307215l0.087925,-0.086123c-2.16138,-12.599099 -3.331375,-23.269689 11.279043,-40.495475c11.94228,-14.081434 14.791115,-20.219605 14.791115,-20.219605c-2.802458,-6.966127 -9.540669,-13.564719 -9.540669,-13.564719s-6.740288,-6.600633 -13.848887,-9.341508c0,0 -6.26675,2.782921 -20.643179,14.484901c-17.586639,14.309274 -28.481464,13.159891 -41.343813,11.047611l-0.088608,0.085442c-2.439688,-1.088355 -4.929224,-2.073627 -7.459597,-3.001954l0,-0.145109c-10.623432,-7.41435 -19.155414,-14.148565 -21.260713,-36.447221c-1.720379,-18.228018 -4.137224,-24.539775 -4.137224,-24.539775c-7.012364,-2.987035 -16.538491,-2.987035 -16.538491,-2.987035s-9.530282,0 -16.537106,2.987035c0,0 -2.421693,6.312437 -4.139302,24.539775c-2.105299,22.298655 -10.642129,29.03287 -21.26002,36.447221l0,0.145109c-2.524843,0.928327 -5.019217,1.912929 -7.46029,2.997882l-0.084463,-0.08137c-12.86235,2.120426 -23.757164,3.265055 -41.343813,-11.042868c-14.375034,-11.697908 -20.650094,-14.486252 -20.650094,-14.486252c-7.112061,2.748339 -13.840577,9.338116 -13.840577,9.338116s-6.739605,6.606737 -9.537899,13.568111c0,0 2.837755,6.138841 14.789038,20.216213c14.607648,17.225105 13.42312,27.896376 11.273503,40.495484l0.088618,0.086113c-1.112539,2.392342 -2.117764,4.834184 -3.066224,7.307215l-0.147459,0c-7.564825,10.40884 -14.440809,18.762355 -37.205204,20.823784c-18.611263,1.68576 -25.062866,4.061142 -25.062866,4.061142c-3.041988,6.869838 -3.041988,16.191003 -3.041988,16.191003s0,9.338126 3.049605,16.197787c0,0 6.436368,2.375391 25.051094,4.053687c22.765087,2.0621 29.632762,10.429183 37.209359,20.824465l0.148151,0c0.948461,2.478455 1.952993,4.916904 3.066224,7.307215l-0.088618,0.086113c2.165535,12.60046 3.333453,23.269699 -11.273503,40.495484c-11.943665,14.080754 -14.793193,20.22706 -14.793193,20.22706c2.810066,6.962735 9.536514,13.557264 9.536514,13.557264s6.744443,6.601984 13.853042,9.338116c0,0 6.263288,-2.776146 20.639706,-14.482189c17.585956,-14.307923 28.484926,-13.147694 41.343121,-11.044899l0.088618,-0.086803c2.441073,1.088355 4.935447,2.069565 7.46029,3.001954l0,0.149181c10.626202,7.410278 19.154721,14.144503 21.26002,36.443158c1.720379,18.228018 4.142062,24.54723 4.142062,24.54723c7.016519,2.9789 16.533653,2.9789 16.533653,2.9789s9.533744,0 16.538491,-2.987035c0,0 2.425838,-6.304973 4.137224,-24.539775c2.105299,-22.298655 10.646966,-29.026096 21.260713,-36.443158l0,-0.149181c2.530373,-0.93239 5.01991,-1.912919 7.459597,-3.001944l0.088608,0.086793c12.86235,-2.117033 23.756482,-3.263024 41.343813,11.044899c14.377121,11.699269 20.652873,14.490334 20.652873,14.490334c7.107906,-2.753092 13.839192,-9.345581 13.839192,-9.345581s6.738211,-6.601994 9.540669,-13.564728c0,0 -2.841227,-6.139522 -14.791115,-20.219595c-14.610427,-17.225105 -13.432815,-27.895025 -11.279052,-40.495484l-0.087915,-0.086113c1.111144,-2.39031 2.121216,-4.82876 3.06483,-7.307215l0.152316,0c7.565517,-10.402737 14.440107,-18.762365 37.205896,-20.824465c18.609878,-1.68508 25.062163,-4.053687 25.062163,-4.053687c3.04269,-6.867126 3.04269,-16.197787 3.04269,-16.197787s-0.000692,-9.338116 -3.050307,-16.199138l0.00001,0zm-174.180696,97.386077c-45.778725,0 -82.888396,-36.34754 -82.888396,-81.186938s37.109671,-81.186929 82.888396,-81.186929c45.778033,0 82.887704,36.34754 82.887704,81.186929s-37.109671,81.186938 -82.887704,81.186938z" fill="#7F7F7F" id="svg_1" transform="rotate(-0.17764613032341003 261.0704650878867,307.8559570312556) "/>
 </g>
</svg>